<svg width="54" height="54" viewBox="0 0 54 54" fill="none" xmlns="http://www.w3.org/2000/svg">
<path fill-rule="evenodd" clip-rule="evenodd" d="M13.8517 12.4377C12.6438 11.2298 12.6786 9.24013 14.0841 8.26914C16.6794 6.47613 19.6657 5.20861 22.889 4.62036C24.569 4.31377 25.9998 5.69635 25.9998 7.40407V17.3431C25.9998 20.0158 22.7683 21.3543 20.8784 19.4644L13.8517 12.4377ZM10.9784 10.8482C10.9348 10.8915 10.8913 10.935 10.848 10.9786L10.9784 10.8482ZM12.4375 13.8519C11.2296 12.644 9.23995 12.6788 8.26896 14.0843C6.47595 16.6796 5.20844 19.6658 4.62019 22.8892C4.31359 24.5691 5.69617 25.9999 7.4039 25.9999H17.3429C20.0156 25.9999 21.3541 22.7685 19.4642 20.8786L12.4375 13.8519ZM4.24976 26.9999L4.25002 26.8891L4.25002 27.1108L4.24976 26.9999ZM12.4375 40.1479C11.2296 41.3559 9.23995 41.3211 8.26896 39.9156C6.47595 37.3203 5.20844 34.334 4.62019 31.1107C4.31359 29.4307 5.69617 27.9999 7.4039 27.9999H17.3429C20.0156 27.9999 21.3541 31.2313 19.4642 33.1212L12.4375 40.1479ZM10.8482 43.0215C10.8914 43.065 10.9347 43.1083 10.9782 43.1514L10.8482 43.0215ZM13.8517 41.5622C12.6438 42.7701 12.6786 44.7597 14.0841 45.7307C16.6794 47.5237 19.6657 48.7912 22.889 49.3795C24.569 49.6861 25.9998 48.3035 25.9998 46.5958V36.6568C25.9998 33.9841 22.7683 32.6456 20.8784 34.5355L13.8517 41.5622ZM34.5353 20.8786C32.6454 22.7685 33.9839 25.9999 36.6566 25.9999H46.5956C48.3033 25.9999 49.6859 24.5691 49.3793 22.8892C48.7911 19.6658 47.5236 16.6796 45.7305 14.0842C44.7596 12.6788 42.7699 12.644 41.562 13.8519L34.5353 20.8786ZM40.1478 12.4377C41.3557 11.2298 41.3209 9.24013 39.9154 8.26914C37.3201 6.47613 34.3338 5.20861 31.1105 4.62036C29.4305 4.31377 27.9998 5.69635 27.9998 7.40408V17.3431C27.9998 20.0158 31.2312 21.3543 33.1211 19.4644L40.1478 12.4377ZM45.7305 39.9156C44.7596 41.3211 42.7699 41.3559 41.562 40.1479L34.5353 33.1212C32.6454 31.2314 33.9839 27.9999 36.6566 27.9999H46.5956C48.3033 27.9999 49.6859 29.4307 49.3793 31.1107C48.7911 34.334 47.5236 37.3202 45.7305 39.9156ZM33.1211 34.5355C31.2312 32.6456 27.9998 33.9841 27.9998 36.6568V46.5958C27.9998 48.3035 29.4305 49.6861 31.1105 49.3795C34.3338 48.7912 37.3201 47.5237 39.9154 45.7307C41.3209 44.7597 41.3557 42.7701 40.1478 41.5622L33.1211 34.5355Z" fill="#6A54FF"/>
<circle cx="26.9998" cy="4.25" r="3.75" fill="#57E1FF" stroke="black"/>
<circle cx="26.9998" cy="49.75" r="3.75" fill="#57E1FF" stroke="black"/>
<circle cx="10.9131" cy="10.9135" r="3.75" transform="rotate(-45 10.9131 10.9135)" fill="#57E1FF" stroke="black"/>
<circle cx="43.0865" cy="43.0865" r="3.75" transform="rotate(-45 43.0865 43.0865)" fill="#57E1FF" stroke="black"/>
<circle cx="4.25" cy="27" r="3.75" transform="rotate(-90 4.25 27)" fill="#57E1FF" stroke="black"/>
<circle cx="49.7498" cy="27" r="3.75" transform="rotate(-90 49.7498 27)" fill="#57E1FF" stroke="black"/>
<circle cx="10.9132" cy="43.0866" r="3.75" transform="rotate(-135 10.9132 43.0866)" fill="#57E1FF" stroke="black"/>
<circle cx="43.0865" cy="10.9135" r="3.75" transform="rotate(-135 43.0865 10.9135)" fill="#57E1FF" stroke="black"/>
</svg>
